<?xml version="1.0" encoding="UTF-8" standalone="no"?>
<!-- Created with Inkscape (http://www.inkscape.org/) -->

<svg
   version="1.1"
   id="svg1"
   width="532"
   height="418"
   viewBox="0 0 532 418"
   sodipodi:docname="Favicon color blanco.svg"
   inkscape:version="1.4.2 (f4327f4, 2025-05-13)"
   xmlns:inkscape="http://www.inkscape.org/namespaces/inkscape"
   xmlns:sodipodi="http://sodipodi.sourceforge.net/DTD/sodipodi-0.dtd"
   xmlns="http://www.w3.org/2000/svg"
   xmlns:svg="http://www.w3.org/2000/svg">
  <defs
     id="defs1" />
  <sodipodi:namedview
     id="namedview1"
     pagecolor="#ffffff"
     bordercolor="#000000"
     borderopacity="0.25"
     inkscape:showpageshadow="2"
     inkscape:pageopacity="0.0"
     inkscape:pagecheckerboard="0"
     inkscape:deskcolor="#d1d1d1"
     inkscape:zoom="1.1842105"
     inkscape:cx="263.88889"
     inkscape:cy="204.77778"
     inkscape:window-width="1366"
     inkscape:window-height="697"
     inkscape:window-x="-8"
     inkscape:window-y="-8"
     inkscape:window-maximized="1"
     inkscape:current-layer="g1" />
  <g
     inkscape:groupmode="layer"
     inkscape:label="Image"
     id="g1">
    <path
       style="fill:#ffffff"
       d="m 254.74444,403.16127 c -11.98132,-6.64389 -18.05712,-10.55933 -30.01612,-19.34336 -9.98392,-7.3333 -32.49444,-27.67615 -36.64076,-33.11241 l -2.65689,-3.48346 6.84388,-4.11718 c 6.14922,-3.69927 6.97716,-3.95466 8.15689,-2.51612 6.06104,7.39071 35.93304,28.53558 54.74266,38.74953 12.2127,6.63172 9.57328,7.09273 28.37813,-4.95662 16.20898,-10.38602 27.59367,-19.33675 43.08709,-33.87537 6.54218,-6.13901 12.39218,-11.0654 13,-10.94753 0.60782,0.11787 4.3407,1.01787 8.2953,2 l 7.19018,1.78569 -2.80372,3.74513 c -13.25904,17.71103 -36.41619,39.71341 -57.07664,54.23041 -8.05428,5.65931 -28.29639,17.56912 -29.66762,17.45548 -0.45781,-0.038 -5.33238,-2.56433 -10.83238,-5.61419 z m -125.9846,-28.44172 c 2.90509,-13.44507 10.04763,-26.74011 22.23954,-41.39642 4.99273,-6.00192 5.79991,-7.41434 4,-6.99927 -16.38916,3.7794 -52.97379,5.66205 -71.287844,3.66848 -24.72213,-2.69112 -45.68562,-10.67266 -57.63248,-21.94273 -9.37161,-8.8407 -12.13277,-14.7038 -12.66598,-26.89517 -0.35038,-8.011 -0.0311,-10.51694 2.30045,-18.056 7.98178,-25.80897 26.83812,-50.9115 60.15988,-80.08794 l 7.12895,-6.24209 5.55954,5.78532 5.55953,5.78532 -9.42321,9.50269 c -12.50662,12.61211 -19.57464,21.70115 -24.88664,32.0027 -6.26403,12.1478 -7.94452,18.66355 -7.28715,28.25441 0.72704,10.60725 3.86871,16.87202 12.36537,24.65767 16.19355,14.83844 43.485094,22.4942 79.854644,22.40063 27.32772,-0.0703 53.81866,-5.55875 84.24055,-17.45312 5.71454,-2.23427 10.53154,-3.9042 10.70446,-3.71095 0.58653,0.6555 5.64687,10.96282 6.55566,13.35312 0.84602,2.22519 0.18909,2.81686 -10.2985,9.27527 -23.53581,14.4937 -41.56752,25.76249 -51.20217,31.99843 -11.70091,7.57332 -44.21006,30.14093 -50,34.70963 -6.54777,5.1667 -6.81399,5.22853 -5.9846,1.39002 z m 278.4846,-44.04798 c -26.87676,-0.97754 -50.67233,-4.77858 -78.5,-12.53937 -10.94226,-3.05166 -44.14141,-15.57395 -42.62757,-16.07857 0.59695,-0.19898 9.08236,0.33512 18.85647,1.18689 56.02949,4.88274 87.47241,4.60476 115.2711,-1.01908 30.26225,-6.12223 49.95506,-18.95506 55.55061,-36.19959 5.50577,-16.96783 -5.91372,-42.88619 -29.72004,-67.4544 l -10.39193,-10.72451 5.2279,-5.16296 5.2279,-5.16296 4.54021,3.72036 c 8.86383,7.26324 26.99318,25.24236 34.76946,34.48133 19.79905,23.5232 29.86429,44.44789 30.12436,62.62573 0.15369,10.74255 -1.11978,15.51627 -6.09745,22.85685 -6.50033,9.58605 -18.97943,17.66085 -35.72139,23.1141 -17.38192,5.6617 -36.1885,7.459 -66.50963,6.35618 z M 358.9391,297.14446 c -0.99293,-0.25739 -1.65972,-0.76769 -1.48174,-1.134 0.17797,-0.36631 3.31776,-6.74102 6.9773,-14.16602 7.33236,-14.87694 13.86088,-33.31137 16.43269,-46.40058 l 1.66921,-8.49545 5.70716,-3.52266 c 3.13894,-1.93746 6.27831,-4.21086 6.97639,-5.05198 2.42345,-2.92009 2.65476,-1.47966 1.23978,7.72067 -3.07307,19.98136 -9.94915,42.76977 -19.30535,63.98093 l -3.4101,7.73092 -6.5,-0.0969 c -3.575,-0.0533 -7.3124,-0.30752 -8.30534,-0.56491 z M 149.03549,283.59444 c -3.07195,-7.2875 -6.72121,-16.87357 -8.10947,-21.30238 -3.2696,-10.43065 -7.4803,-30.43227 -8.32906,-39.56459 l -0.66715,-7.17824 5.32305,4.20763 c 2.92768,2.3142 6.59847,4.86718 8.15732,5.67329 1.90146,0.98328 2.83426,2.24479 2.83426,3.83301 0,9.26315 8.55294,37.35346 16.51733,54.24766 l 5.26414,11.16637 -6.22264,1.08363 c -3.42246,0.59599 -6.8886,1.08362 -7.70254,1.08362 -0.95103,0 -3.47588,-4.73504 -7.06524,-13.25 z m 155.97632,5.60083 -7.73263,-2.44554 -0.26737,-24.59817 -0.26737,-24.59817 -9.0597,10.39553 c -4.98284,5.71754 -11.8664,13.65802 -15.29681,17.64552 -3.43041,3.9875 -6.62511,7.25 -7.09934,7.25 -0.47422,0 -7.99065,-7.93418 -16.70318,-17.63152 l -15.84097,-17.63153 -0.27266,17.53202 -0.27267,17.53201 -4.22733,1.70207 c -2.32504,0.93613 -6.36484,2.54935 -8.97734,3.58491 l -4.75,1.88286 v -38.48541 -38.48541 h 8.43074 8.43074 l 9.74255,12.75 c 5.3584,7.0125 13.09374,16.93323 17.18963,22.04605 7.24369,9.04216 7.50039,9.24782 9.39856,7.53 1.07332,-0.97134 8.7432,-10.89206 17.04419,-22.04606 l 15.09272,-20.27999 h 7.83544 7.83543 v 44.5 c 0,34.98763 -0.2672,44.47824 -1.25,44.39819 -0.6875,-0.056 -4.72968,-1.2023 -8.98263,-2.54736 z m 36.45391,-53.10083 c -1.11375,-2.6125 -2.59541,-6.67923 -3.29257,-9.03718 -1.18086,-3.99393 -1.12191,-4.38919 0.86188,-5.77869 7.28392,-5.10186 24.34735,-18.9616 33.96525,-27.58822 29.78832,-26.71817 52.22608,-58.01694 55.56479,-77.5082 0.90106,-5.26037 0.79244,-7.13772 -0.68401,-11.82154 -5.46543,-17.338358 -31.02041,-25.502088 -86.13662,-27.516968 -13.75,-0.50266 -26.35,-0.96599 -28,-1.02963 -2.59637,-0.10013 -2.26002,-0.3797 2.5,-2.0779 12.50037,-4.45968 36.32475,-9.435285 57.5,-12.0086 12.98269,-1.577716 49.65901,-1.579102 60.30693,-0.0023 24.51798,3.630806 38.14367,10.28621 42.84674,20.92829 2.58798,5.85606 2.33817,19.981398 -0.51548,29.147848 -11.6357,37.37595 -58.00579,85.37707 -115.74365,119.81482 -10.05889,5.99963 -15.90921,9.22825 -16.72173,9.22825 -0.23459,0 -1.33777,-2.1375 -2.45153,-4.75 z m -165.22128,-1.11498 c -41.6133,-22.7184 -85.570074,-61.82558 -108.245984,-96.30361 -11.25022,-17.1056 -15.98668,-29.75968 -15.97569,-42.681168 0.0166,-19.53494 10.61562,-28.23264 41.22168,-33.827121 13.862284,-2.533886 59.194874,-2.53272 77.999994,0.002 20.07931,2.706472 33.78545,5.262111 50.5,9.416201 l 15,3.72798 -26.5,0.71705 c -54.20223,1.46664 -78.61745,4.94573 -95.63564,13.62777 -13.86013,7.07091 -17.409184,17.262858 -11.81467,33.928618 9.08075,27.05109 41.59525,64.71147 81.2495,94.10839 3.96045,2.936 7.20081,5.78727 7.20081,6.33615 0,1.8078 -5.24563,15.81519 -5.87967,15.70047 -0.34118,-0.0617 -4.44533,-2.20045 -9.12033,-4.75273 z m 75.05746,-48.19429 c -6.63128,-3.00827 -12.26643,-8.08012 -15.06401,-13.55819 -3.22955,-6.32394 -3.57662,-19.70524 -0.66298,-25.56199 2.43509,-4.89482 7.82114,-10.32368 12.97582,-13.07894 5.85913,-3.1318 21.93305,-3.15015 28.69371,-0.0328 21.75939,10.0334 21.45634,41.49056 -0.5,51.90093 -6.68196,3.16818 -18.83968,3.32633 -25.44254,0.33096 z m -111.80746,-22.32764 -6.25,-6.68626 v -15.81438 -15.81438 l 19.75,-7.56528 c 26.6985,-10.22691 74.38969,-24.926438 75.91681,-23.399308 1.14037,1.14036 -19.96384,16.098538 -29.16681,20.672768 -5.5,2.73371 -19.225,8.30615 -30.5,12.3832 -19.77388,7.15026 -20.51071,7.51373 -20.80235,10.26169 -0.1663,1.56687 -0.8413,9.55372 -1.5,17.74854 l -1.19765,14.89968 z m 244.75145,1.13192 c 7.9e-4,-2.33475 -0.52208,-10.1656 -1.16192,-17.40187 l -1.16336,-13.15686 -12.08808,-4.08674 c -17.3151,-5.85389 -36.86807,-10.41492 -37.86582,-8.83279 -0.42775,0.67829 -3.35275,5.38 -6.5,10.44826 -5.60872,9.03215 -16.89628,23.28499 -18.44059,23.28499 -0.42992,0 -0.78168,-1.06454 -0.78168,-2.36564 0,-3.80197 -6.68105,-16.08012 -11.21932,-20.61839 -4.59603,-4.59603 -8.53465,-6.84318 -16.64728,-9.49798 -4.31716,-1.41276 -7.64153,-1.6614 -17,-1.27149 -13.09507,0.54558 -25.52323,3.852 -45.3834,12.0739 -5.9125,2.44772 -10.75,4.24278 -10.75,3.98904 0,-0.91043 9.67499,-13.02245 19.49562,-24.40637 6.97927,-8.09026 21.20152,-23.643389 36.80936,-40.433651 28.92004,-31.110982 62.59722,-66.4694148 63.76889,-66.4694148 1.13416,0 -15.34486,47.0809028 -29.49674,84.2728278 -1.41742,3.72506 -2.57713,7.11819 -2.57713,7.54029 0,0.4221 6.4125,1.538208 14.25,2.480248 25.97587,3.12219 54.82223,10.56407 77.5,19.99371 l 12.25,5.09367 v 14.35163 14.35162 l -6.5,7.45301 -6.5,7.45301 z"
       id="path1"
       sodipodi:nodetypes="ssscssssssscsssssssssssscccssssssssssssssssssscccsssssssssscsssscsssssscsssscsssscccsssscccsscccccsssscccsssssssssssssssssssssssssscssssssssssscsssccccssssssccsscssssssssssssssssscccccs" />
  </g>
</svg>
