<?xml version="1.0" encoding="UTF-8" standalone="no"?>
<!-- Created with Inkscape (http://www.inkscape.org/) -->

<svg
   version="1.1"
   id="svg1"
   width="1333.3333"
   height="1333.3333"
   viewBox="0 0 1333.3333 1333.3333"
   sodipodi:docname="LOGO OFICIAL PROTON BLANCO.svg"
   inkscape:version="1.4.2 (f4327f4, 2025-05-13)"
   xmlns:inkscape="http://www.inkscape.org/namespaces/inkscape"
   xmlns:sodipodi="http://sodipodi.sourceforge.net/DTD/sodipodi-0.dtd"
   xmlns="http://www.w3.org/2000/svg"
   xmlns:svg="http://www.w3.org/2000/svg">
  <defs
     id="defs1" />
  <sodipodi:namedview
     id="namedview1"
     pagecolor="#ffffff"
     bordercolor="#000000"
     borderopacity="0.25"
     inkscape:showpageshadow="2"
     inkscape:pageopacity="0.0"
     inkscape:pagecheckerboard="0"
     inkscape:deskcolor="#d1d1d1"
     showgrid="false"
     inkscape:zoom="0.37125002"
     inkscape:cx="736.70029"
     inkscape:cy="674.74743"
     inkscape:window-width="1366"
     inkscape:window-height="697"
     inkscape:window-x="-8"
     inkscape:window-y="-8"
     inkscape:window-maximized="1"
     inkscape:current-layer="g1" />
  <g
     inkscape:groupmode="layer"
     inkscape:label="Image"
     id="g1">
    <path
       style="fill:#ffffff"
       d="m 458.6128,972.9982 c 0,-1.24605 16.7882,-29.65587 26.5908,-44.99826 14.7805,-23.13356 36.8333,-59.0603 37.7025,-61.42211 0.6857,-1.86347 -0.4042,-1.83446 -10.1039,0.26896 -50.4154,10.93272 -109.2553,12.78398 -145.1947,4.56822 -59.765,-13.66228 -83.8654,-46.75111 -70.8739,-97.30676 6.3457,-24.69394 25.1322,-57.67127 47.9148,-84.10829 13.1546,-15.26465 47.4999,-50.03493 49.2805,-49.8903 0.7428,0.0603 4.4389,3.87028 8.2136,8.46655 l 6.8632,8.35686 -11.8954,13.78198 c -14.3985,16.68207 -30.0327,39.71524 -36.1681,53.28491 -11.735,25.95447 -12.3317,53.38031 -1.5399,70.7781 7.1133,11.46767 27.1654,23.8457 45.8771,28.31964 40.4373,9.66848 95.6864,4.44191 157.3334,-14.88375 32.4111,-10.16054 75.1268,-29.68459 126.3118,-57.73325 72.236,-39.58431 136.6261,-86.45666 183.7051,-133.72672 31.3353,-31.46259 48.4935,-55.70343 58.1033,-82.08735 2.654,-7.28667 3.1611,-11.21433 3.1848,-24.66666 0.025,-13.97208 -0.3439,-16.69566 -2.908,-21.48863 -9.9504,-18.59984 -30.9651,-30.9125 -61.5111,-36.03973 -13.5429,-2.27321 -66.0074,-3.08837 -74.7787,-1.16185 -4.1304,0.90719 -4.32,0.78671 -3.4207,-2.1747 0.5236,-1.7243 2.1257,-5.91161 3.56,-9.30514 l 2.608,-6.17006 18.2394,-2.87875 c 63.1644,-9.96936 104.5551,-8.76707 137.6575,3.99855 11.7378,4.52659 26.9564,14.69331 33.1427,22.1409 15.265,18.37736 18.4542,45.6174 8.7426,74.67297 -22.7232,67.98384 -115.959,158.33443 -243.9701,236.42023 -21.096,12.86844 -50.4998,29.59874 -63.4758,36.11678 -29.4306,14.78338 -45.6355,25.40586 -90.5242,59.33915 -32.3745,24.47338 -108.1072,84.39097 -125.3333,99.1603 -10.6653,9.14423 -13.3333,11.21892 -13.3333,10.36821 z m 417.3333,-97.09645 c -54.2025,-2.88182 -117.9531,-17.93996 -181.9594,-42.97956 -6.5777,-2.57322 -12.1254,-5.1834 -12.3283,-5.80041 -0.2029,-0.61701 11.1788,-7.35778 25.2927,-14.97951 l 25.6617,-13.85767 10.6666,3.52374 c 52.7322,17.42013 88.9978,24.58581 130.6711,25.81913 47.8585,1.41638 80.0455,-7.19012 99.8237,-26.69193 22.2375,-21.92673 23.5253,-52.87845 3.839,-92.26892 -6.2929,-12.59145 -22.089,-36.15866 -33.5128,-49.99999 l -9.3539,-11.33334 6.8076,-6.91899 6.8076,-6.919 5.6705,4.64661 c 6.2672,5.1355 31.828,33.11168 42.9264,46.98288 12.348,15.43285 23.0036,31.88237 31.7527,49.0176 11.8747,23.25686 15.364,34.84696 16.2143,53.85756 1.1505,25.72377 -4.0177,39.03964 -21.6549,55.79284 -11.0155,10.4634 -20.5412,15.79878 -39.4504,22.09621 -16.7714,5.58549 -33.2346,8.54478 -56.4537,10.14761 -19.46,1.34335 -23.8336,1.33188 -51.4205,-0.13486 z M 583.6703,776.97802 c -13.665,-8.23371 -19.2332,-11.77878 -37.0575,-23.59294 -85.9784,-56.98752 -158.7905,-135.0208 -184.6787,-197.92156 -5.1168,-12.43234 -11.2699,-39.86596 -11.2436,-50.13022 0.025,-9.73592 3.4276,-26.01306 7.1273,-34.09444 4.7204,-10.31063 19.899,-25.18834 32.1283,-31.49145 13.2851,-6.84728 28.9157,-11.39871 47.7091,-13.89227 27.9856,-3.71324 74.1591,-0.88668 112.7649,6.90301 29.7716,6.00718 90.0775,23.66126 95.8813,28.06849 3.7605,2.85565 -14.4317,2.31621 -29.8752,-0.88587 -108.069,-22.40719 -185.9767,-6.98288 -198.505,39.30038 -9.9486,36.75304 18.3523,94.57328 72.2595,147.62987 39.0899,38.4732 93.1975,78.59669 140.5153,104.19909 4.657,2.51979 8.6616,5.16436 8.8991,5.87682 0.5434,1.63016 -46.2641,23.13163 -50.1374,23.03109 -0.4647,-0.0121 -3.0691,-1.36207 -5.7874,-3 z m 45.1928,-49.64698 c -15.647,-4.30125 -33.1811,-17.14804 -40.5375,-29.70084 -4.3698,-7.45656 -8.3795,-21.64651 -8.3795,-29.65459 0,-7.51809 3.0534,-19.55978 6.8437,-26.9894 1.5711,-3.0795 6.4803,-9.37289 10.9093,-13.98532 34.4497,-35.87569 93.5226,-21.0994 105.7158,26.44335 1.5637,6.09678 1.9954,11.7539 1.5023,19.68359 -2.3084,37.12272 -40.1306,64.07831 -76.0541,54.20321 z m 98.639,-77.88041 c -1.484,-14.19758 -9.2187,-30.89663 -19.5876,-42.28877 -28.7917,-31.63319 -74.345,-36.56002 -122.3017,-13.2276 -8.25,4.01388 -15,6.98206 -15,6.59595 0,-0.3861 2.3585,-3.51336 5.2411,-6.94946 2.8826,-3.4361 15.9387,-19.14745 29.0136,-34.91412 28.6604,-34.56077 25.5313,-30.89753 51.7453,-60.58004 24.0605,-27.24416 22.6663,-25.69268 53.9924,-60.08662 47.7679,-52.44609 52.0225,-57.0224 102.5613,-110.3167 4.7046,-4.96109 8.7878,-8.78623 9.0737,-8.50032 0.2859,0.28591 -2.5484,8.5367 -6.2983,18.3351 -10.4785,27.37935 -15.4868,40.66705 -20.535,54.48193 -2.5457,6.96666 -13.7208,35.76666 -24.8336,63.99999 -22.2675,56.57285 -29.27,74.82586 -29.2843,76.33333 0,0.55 16.7904,1 37.3238,1 20.5333,0 37.3333,0.2933 37.3333,0.65178 0,0.35847 -2.5929,4.10847 -5.7619,8.33333 -3.1691,4.22486 -17.9624,25.68156 -32.874,47.68155 -27.8279,41.05607 -46.6094,67.33333 -48.126,67.33333 -0.472,0 -1.229,-3.5472 -1.6821,-7.88266 z M 465.8811,593.6382 c -3.1365,-4.72381 -4.4021,-7.70476 -3.4114,-8.03498 0.8662,-0.28874 3.2028,-1.8699 5.1923,-3.51369 9.6757,-7.99406 54.8808,-35.97566 86.2841,-53.40912 26.0799,-14.47823 78.9887,-40.13615 80.2217,-38.9032 0.7873,0.78728 -32.7096,22.89717 -58.8884,38.86979 -33.9395,20.70775 -74.0082,48.09371 -94.8726,64.84322 l -9.5394,7.65797 z m 398.7317,-13.08779 c -5.8667,-4.7102 -17.1106,-13.09358 -24.9864,-18.62974 l -14.3196,-10.06573 2.8098,-3.80043 2.8098,-3.80043 6.8002,4.00953 c 6.398,3.77241 36.7155,24.23427 43.178,29.14159 l 2.9584,2.24655 -4.2918,4.73133 -4.2918,4.73133 z M 785.2794,522.6648 c -5.6183,-3.0708 -16.3098,-12.51956 -12.9834,-11.47423 2.7557,0.86594 20.9834,12.61251 20.9834,13.52238 0,1.30317 -3.5148,0.40331 -8,-2.04815 z"
       id="path1" />
  </g>
</svg>
