<?xml version="1.0" encoding="UTF-8" standalone="no"?>
<!-- Created with Inkscape (http://www.inkscape.org/) -->

<svg
   version="1.1"
   id="svg1"
   width="1071"
   height="257"
   viewBox="0 0 1071 257"
   sodipodi:docname="Logo y texto horizontal blanco.svg"
   inkscape:version="1.4.2 (f4327f4, 2025-05-13)"
   xmlns:inkscape="http://www.inkscape.org/namespaces/inkscape"
   xmlns:sodipodi="http://sodipodi.sourceforge.net/DTD/sodipodi-0.dtd"
   xmlns="http://www.w3.org/2000/svg"
   xmlns:svg="http://www.w3.org/2000/svg">
  <defs
     id="defs1" />
  <sodipodi:namedview
     id="namedview1"
     pagecolor="#ffffff"
     bordercolor="#000000"
     borderopacity="0.25"
     inkscape:showpageshadow="2"
     inkscape:pageopacity="0.0"
     inkscape:pagecheckerboard="0"
     inkscape:deskcolor="#d1d1d1"
     inkscape:zoom="1.1409897"
     inkscape:cx="193.25327"
     inkscape:cy="128.3973"
     inkscape:window-width="1366"
     inkscape:window-height="697"
     inkscape:window-x="-8"
     inkscape:window-y="-8"
     inkscape:window-maximized="1"
     inkscape:current-layer="g1" />
  <g
     inkscape:groupmode="layer"
     inkscape:label="Image"
     id="g1">
    <path
       style="fill:#ffffff"
       d="m 154.47709,243.45337 c -11.72077,-6.50092 -23.20954,-14.71842 -31.55899,-22.57298 -4.36756,-4.10868 -7.94101,-7.82913 -7.94101,-8.26767 0,-0.43854 1.58854,-1.7346 3.53009,-2.88014 l 3.5301,-2.08281 10.17811,8.42482 c 9.68475,8.01644 20.92598,15.26915 27.52952,17.7617 2.72857,1.02993 3.59875,0.8035 8.6295,-2.24546 9.33444,-5.65726 17.74663,-12.38132 27.15144,-21.70278 l 8.95124,-8.87192 4.2695,0.86356 4.26949,0.86355 -1.76949,3.18252 c -0.97323,1.75039 -6.7195,8.17467 -12.7695,14.27619 -10.27746,10.36496 -19.90864,17.66732 -32.5,24.64148 l -4.5,2.49248 z M 79.977086,230.892 c 0,-5.41962 9.09207,-22.39263 15.8459,-29.58098 l 2.63714,-2.80681 -3.49152,0.63328 c -1.92034,0.34831 -8.44152,0.93637 -14.49152,1.30681 -27.569038,1.68805 -47.606408,-2.60373 -58.622743,-12.55633 -11.715646,-10.58438 -11.9489998,-24.91495 -0.71766,-44.07237 1.888913,-3.22194 9.12628,-11.5271 16.655789,-19.11315 l 13.315384,-13.41539 3.092759,3.09276 3.092759,3.09276 -8.16752,8.72964 c -12.560485,13.42494 -17.911552,26.15541 -15.210462,36.18649 1.471942,5.46638 8.638132,13.19172 15.756221,16.98562 21.620373,11.52354 58.495247,11.78933 89.391797,0.64433 3.89963,-1.40668 7.17636,-2.40982 7.28162,-2.22921 1.04255,1.78896 3.65092,8.13441 3.42492,8.33189 -0.16107,0.14074 -2.64852,1.43914 -5.52767,2.88534 -14.57841,7.32275 -51.019244,30.9019 -59.429144,38.45382 -2.65983,2.38847 -4.83605,3.93264 -4.83605,3.4315 z M 227.97709,200.56392 c -15.79683,-1.96142 -30.94448,-5.06586 -42.38033,-8.68563 l -11.88033,-3.76046 35.38033,-0.0458 c 33.44395,-0.0433 35.81817,-0.16769 43.38033,-2.27289 21.88887,-6.09358 34.84883,-17.70103 33.06263,-29.61222 -1.33773,-8.92068 -9.316,-22.13187 -20.4477,-33.8593 l -5.49606,-5.7902 2.94056,-2.91284 2.94057,-2.91284 11.12214,10.70304 c 13.702,13.18569 20.34195,21.25191 25.14508,30.54626 3.50943,6.79098 3.69935,7.65054 3.71563,16.81715 0.0162,9.14847 -0.1435,9.89034 -3.01451,14 -5.36715,7.68276 -16.14016,13.40776 -30.96834,16.45725 -8.77432,1.80448 -33.56812,2.56167 -43.5,1.32847 z M 216.8452,177.86783 c 4.15107,-8.23938 7.94747,-20.96427 9.36935,-31.4045 0.99474,-7.30391 1.61367,-9.22225 3.24583,-10.06013 1.10919,-0.56941 3.08785,-1.99156 4.39701,-3.16033 l 2.3803,-2.12504 -0.67464,7.08549 c -1.08235,11.36749 -4.24964,25.17287 -8.18229,35.66451 l -3.65467,9.75 h -4.88889 -4.8889 z M 91.694356,174.8275 c -4.22951,-9.25268 -8.29919,-23.00296 -9.68109,-32.70967 -1.60598,-11.28063 -1.69263,-11.0957 3.46382,-7.39262 3.65473,2.62463 4.50132,3.81029 4.50701,6.31214 0.0173,7.60615 7.55979,30.61617 12.552884,38.2953 2.04769,3.14924 1.92683,3.28518 -2.920734,3.28518 h -4.36084 z m 86.761684,1.54033 c -0.25205,-0.6875 -0.57543,-7.75863 -0.71861,-15.71363 l -0.26034,-14.46363 -8.3447,10.96363 c -4.58958,6.03 -8.84581,10.96363 -9.45827,10.96363 -0.61246,0 -5.18235,-4.8532 -10.1553,-10.78489 l -9.04173,-10.78488 -0.5,12.17675 -0.5,12.17676 -4.75,1.20354 -4.75,1.20354 v -22.84541 -22.84541 h 4.41701 4.417 l 10.16835,13.05161 c 7.24588,9.30048 10.50307,12.7707 11.33299,12.07422 0.64056,-0.53757 4.98965,-6.40374 9.66465,-13.03594 l 8.5,-12.05854 4.75,-0.0157 4.75,-0.0157 v 25 25 h -4.53138 c -2.71403,0 -4.71519,-0.50133 -4.98967,-1.25 z m 593.52105,-7.6595 c -10.96126,-1.27314 -17.67678,-3.75278 -22.72452,-8.39079 -7.0631,-6.48978 -7.27548,-7.47258 -7.27548,-33.66759 v -23.03212 h 9 9 v 21.86514 c 0,20.67276 0.11411,22.0102 2.09239,24.52518 3.71998,4.72919 8.1591,5.98369 21.40761,6.0498 10.81972,0.054 12.40229,-0.17069 16.09007,-2.28438 7.13294,-4.0883 7.40993,-5.17458 7.40993,-29.06003 v -21.09571 h 9 9 v 21.85078 c 0,13.67701 -0.42573,23.12233 -1.1381,25.25 -2.77507,8.28841 -9.69875,13.70768 -20.87543,16.33951 -8.02546,1.88979 -22.35399,2.65287 -30.98647,1.65021 z m -431,-33.0905 v -32 h 8.8003 8.80031 l 8.49081,7.75 c 9.98154,9.11066 23.68166,21.23273 26.13208,23.12205 1.96199,1.51273 1.16053,2.13245 24.08326,-18.62205 l 13.52976,-12.25 h 8.58174 8.58174 v 32.03893 32.03894 l -8.75,-0.28894 -8.75,-0.28893 -0.27012,-21.33122 -0.27013,-21.33122 -10.22987,9.43595 c -5.62644,5.18977 -13.58588,12.37013 -17.68766,15.95636 l -7.45778,6.5204 -11.54222,-10.05759 c -6.34822,-5.53168 -14.35472,-12.77499 -17.79222,-16.09625 l -6.25,-6.03865 v 21.72111 21.72111 h -9 -9 z m 133.4066,0.25 21.12414,-31.75 9.65776,-0.28528 9.65775,-0.28529 3.59007,5.28529 c 1.97453,2.9069 5.34783,7.76028 7.49621,10.78528 8.7796,12.36203 31.3036,45.45178 31.77506,46.68037 0.3985,1.03848 -1.59365,1.31617 -9.3506,1.30339 l -9.85699,-0.0163 -4.90369,-6.98375 -4.90369,-6.98376 h -23.26464 -23.26464 l -4.33167,6.95919 -4.33167,6.95919 -10.10877,0.0408 -10.10877,0.0408 z m 45.39878,3.5 c -1.3376,-1.7875 -5.06981,-6.9625 -8.2938,-11.5 -3.22399,-4.5375 -6.1205,-8.23602 -6.43669,-8.21894 -0.31619,0.0171 -4.08795,5.19208 -8.3817,11.5 l -7.8068,11.46894 h 16.67549 16.6755 z m 44.19462,11.34848 v -16.90152 l 25.75,-0.50082 c 14.1625,-0.27546 26.97603,-0.82004 28.47451,-1.21019 7.64567,-1.99064 10.1115,-9.67829 4.45432,-13.88708 -2.68287,-1.99598 -4.19032,-2.11331 -30.75,-2.39343 l -27.92883,-0.29455 v -6.03172 -6.03173 l 30.75,0.36062 c 28.95796,0.33959 31.07435,0.4899 36.31567,2.57916 6.32079,2.51955 10.12662,6.03317 12.38128,11.43066 2.68133,6.41891 1.67184,12.8593 -2.76356,17.63111 -2.74926,2.95777 -10.89128,7.15101 -13.88514,7.15101 -1.81356,0 0.23144,2.50569 10.20175,12.5 l 12.46999,12.5 h -10.86924 -10.86925 l -10.61575,-11.00511 -10.61575,-11.00512 -12.75,0.005 -12.75,0.005 v 11 11 h -8.5 -8.5 z m 119,-9.09848 v -26 h -16 -16 v -6 -6 h 40.39301 c 45.20753,0 41.60699,-0.6561 41.60699,7.58179 v 4.41821 h -16 -16 v 26 26 h -9 -9 z m 145.79274,21.75 c 2.91666,-4.29096 11.8992,-17.97495 29.53921,-45 l 9.62774,-14.75 h 9.33161 9.33161 l 5.308,7.75 c 2.9194,4.2625 12.69756,18.6625 21.72926,32 l 16.42126,24.25 -10.29072,-0.0408 -10.29071,-0.0408 -4.34323,-6.97739 -4.34324,-6.97739 -23.08111,0.2682 -23.08111,0.2682 -4.07565,6.72075 -4.07566,6.72075 -10.29804,0.0293 -10.29804,0.0292 z m 61.95065,-25.01796 c -1.78386,-2.34738 -5.46032,-7.52238 -8.1699,-11.5 -2.70958,-3.97762 -5.20006,-7.23204 -5.53439,-7.23204 -0.33434,0 -1.47122,1.4625 -2.52641,3.25 -1.05519,1.7875 -4.51525,6.9625 -7.68903,11.5 l -5.77049,8.25 h 16.46681 16.46681 z m 44.25661,-2.69311 v -32.03893 h 8.34588 8.34588 l 10.91053,9.75 c 6.0008,5.3625 14.08118,12.52997 17.95639,15.92771 l 7.0459,6.1777 17.44773,-15.90888 17.4477,-15.90889 8.5782,-0.0188 8.5782,-0.0188 v 32 32 h -8.8044 -8.8044 l -0.2695,-21.40012 -0.2695,-21.40013 -14.5,13.43066 c -7.97503,7.38686 -15.65403,14.28811 -17.06453,15.33611 l -2.5644,1.90545 -16.93555,-14.89085 c -9.32314,-8.19001 -17.16913,-14.91137 -17.44413,-14.93641 -0.275,-0.025 -0.5,9.29216 -0.5,20.70487 v 20.75038 l -8.75,0.28893 -8.75,0.28894 z m -733.02693,8.71107 c -1.06103,-2.3375 -1.93903,-4.73986 -1.95111,-5.33858 -0.0121,-0.59872 3.91466,-4.19872 8.72608,-8 25.194,-19.9046 44.3572,-45.06808 44.56002,-58.51244 0.18999,-12.59405 -10.28342,-16.39511 -48.80806,-17.71364 l -21,-0.71874 13,-3.15908 c 17.25595,-4.19329 28.22678,-5.59409 44.5,-5.68197 21.31948,-0.11512 32.20108,3.16373 37.82767,11.39826 4.49284,6.57527 1.57855,20.25818 -6.95709,32.66431 -9.0887,13.20996 -35.28187,38.11566 -52.81766,50.22152 -8.63976,5.96448 -13.56705,9.09036 -14.32901,9.09036 -0.45193,0 -1.68981,-1.9125 -2.75084,-4.25 z M 103.4773,141.92196 C 81.450596,128.1783 55.462291,104.29585 45.473051,88.61784 34.933182,72.07561 33.481278,60.26749 41.0558,52.69297 c 9.734028,-9.73403 49.944796,-10.25294 86.50644,-1.11635 4.18453,1.0457 7.86472,2.15776 8.17821,2.47124 0.31348,0.31349 -6.36753,0.57383 -14.84669,0.57853 -31.299234,0.0174 -48.096827,2.9716 -54.755156,9.62993 -3.29485,3.29485 -3.411773,3.66503 -2.908996,9.20975 1.284644,14.16728 17.611838,35.51664 41.948202,54.85128 4.2354,3.36492 8.64197,6.77731 9.79238,7.5831 2.04092,1.42951 2.0506,1.57123 0.3989,5.84122 -0.93102,2.40689 -1.96531,4.69388 -2.29842,5.08219 -0.3331,0.38832 -4.65012,-1.81753 -9.59337,-4.9019 z m 46.82729,-24.52865 c -9.72505,-3.12779 -13.77048,-16.23868 -7.6067,-24.65267 7.72691,-10.54776 26.59083,-6.51882 30.16994,6.44368 3.38074,12.24401 -9.29744,22.47556 -22.56324,18.20899 z M 84.727086,102.1342 c -2.59084,-2.28035 -2.75,-2.908 -2.75,-10.84499 v -8.42456 l 14.75,-5.10251 c 17.730514,-6.13356 36.166984,-11.56066 36.873344,-10.8543 0.28172,0.28172 -2.37849,2.57498 -5.91156,5.09613 -6.3571,4.53633 -20.56602,10.78188 -32.525394,14.29659 l -6.18362,1.81728 -0.001,8.25 c -7.7e-4,4.5375 -0.33889,8.23577 -0.75139,8.21839 -0.4125,-0.0174 -1.9875,-1.1208 -3.5,-2.45203 z M 226.97709,96.78262 c 0,-5.70223 -0.38367,-8.35022 -1.25,-8.6272 -0.6875,-0.21981 -6.875,-1.9696 -13.75,-3.88843 -6.875,-1.91883 -13.175,-3.73286 -14,-4.03117 -1.06824,-0.38627 -3.36365,2.46903 -7.97464,9.91982 -3.56106,5.75421 -6.73023,10.4622 -7.0426,10.4622 -0.31237,0 -1.08866,-1.9125 -1.72508,-4.25 -1.57267,-5.77625 -6.20943,-11.04874 -12.45245,-14.15977 -9.55076,-4.75934 -21.87588,-3.33272 -38.1424,4.41496 -3.34962,1.59541 -6.20305,2.78793 -6.34094,2.65003 -1.2786,-1.2786 65.23855,-81.30869 66.55922,-80.0807 0.35615,0.33116 -15.91872,52.24951 -17.92283,57.17548 -0.50347,1.2375 -0.6453,2.25 -0.31518,2.25 0.33012,0 5.38298,0.70232 11.22856,1.56072 11.69662,1.71758 22.61265,4.25319 34.2159,7.94776 4.17317,1.32876 9.46067,2.71546 11.75,3.08154 l 4.16244,0.6656 v 8.17602 c 0,8.0312 -0.062,8.23611 -3.5,11.56836 l -3.5,3.39232 z"
       id="path1" />
  </g>
</svg>
